# xmcd
#
# Track frame offsets:
#	150
#	25200
#	45580
#	62102
#	89482
#	104557
#	124300
#	144327
#	169660
#	188760
#	210632
#
# Disc length: 3036 seconds
#
# Revision: 2
# Processed by: cddbd v1.5.2PL0 Copyright (c) Steve Scherf et al.
# Submitted via: EasyCDDAExtractor 16.0.6.1
#
DISCID=9b0bda0b
DTITLE=Don Baker - No Regrets
DYEAR=1900
DGENRE=Blues
TTITLE0=No Regrets
TTITLE1=Be for Real
TTITLE2=Keep me hanging on
TTITLE3=Help me work it out
TTITLE4=Rocking with my baby
TTITLE5=Running from Freedom
TTITLE6=Sea of Heartbreak
TTITLE7=Ain't going down this time
TTITLE8=Jordanna
TTITLE9=6 hours ahead of the sun
TTITLE10=Never let you down
EXTD=
EXTT0=
EXTT1=
EXTT2=
EXTT3=
EXTT4=
EXTT5=
EXTT6=
EXTT7=
EXTT8=
EXTT9=
EXTT10=
PLAYORDER=
